<?xml version="1.0" standalone="no"?>
<!DOCTYPE svg PUBLIC "-//W3C//DTD SVG 20010904//EN"
 "http://www.w3.org/TR/2001/REC-SVG-20010904/DTD/svg10.dtd">
<svg version="1.0" xmlns="http://www.w3.org/2000/svg"
 width="512.000000pt" height="512.000000pt" viewBox="0 0 512.000000 512.000000"
 preserveAspectRatio="xMidYMid meet">
<metadata>
Created by potrace 1.14, written by Peter Selinger 2001-2017
</metadata>
<g transform="translate(0.000000,512.000000) scale(0.100000,-0.100000)"
fill="#000000" stroke="none">
<path d="M415 5110 c-197 -41 -349 -188 -400 -385 -13 -52 -15 -307 -15 -2165
0 -2303 -4 -2154 57 -2280 38 -78 151 -189 233 -228 36 -16 92 -35 124 -41 84
-15 4208 -15 4292 0 97 18 180 64 260 143 76 76 114 142 139 242 14 54 15 300
13 2190 l-3 2129 -23 59 c-30 81 -73 144 -135 203 -63 59 -106 86 -183 116
l-59 22 -2130 1 c-1172 1 -2148 -2 -2170 -6z m2305 -1205 c119 -18 186 -38
274 -81 207 -102 335 -255 402 -479 21 -73 27 -117 31 -233 8 -209 -19 -342
-98 -494 -43 -81 -182 -221 -267 -268 -34 -19 -69 -39 -76 -45 -11 -8 48 -123
285 -555 l298 -545 -241 -3 c-133 -1 -246 2 -251 7 -4 4 -129 233 -276 507
l-268 499 -277 3 -276 2 0 -510 0 -510 -215 0 -215 0 0 1360 0 1360 538 0
c419 0 558 -3 632 -15z"/>
<path d="M1980 3069 l0 -461 328 5 c257 3 340 8 390 21 210 54 312 191 312
422 0 209 -70 343 -220 419 -91 46 -171 55 -506 55 l-304 0 0 -461z"/>
</g>
</svg>
